<svg width="14" height="14" viewBox="0 0 14 14" fill="none" xmlns="http://www.w3.org/2000/svg">
<path d="M12.7207 0.219727C13.0136 -0.0730488 13.4884 -0.0731272 13.7812 0.219727C14.0738 0.512605 14.0739 0.98747 13.7812 1.28027L8.06055 7L13.7812 12.7207C14.0737 13.0136 14.0739 13.4885 13.7812 13.7812C13.4885 14.074 13.0136 14.0737 12.7207 13.7812L7 8.06055L1.28027 13.7812C0.987476 14.0739 0.512597 14.0738 0.219727 13.7812C-0.0731166 13.4884 -0.073019 13.0136 0.219727 12.7207L5.93945 7L0.219727 1.28027C-0.0731661 0.987381 -0.0731656 0.51262 0.219727 0.219727C0.512626 -0.0730785 0.987409 -0.0731364 1.28027 0.219727L7 5.93945L12.7207 0.219727Z" fill="#3B332F"/>
</svg>
