<svg width="11" height="11" viewBox="0 0 11 11" fill="none" xmlns="http://www.w3.org/2000/svg">
<path d="M10.1465 0.146484C10.3417 -0.0487778 10.6583 -0.0487778 10.8535 0.146484C11.0487 0.34175 11.0488 0.658266 10.8535 0.853516L6.20703 5.5L10.8535 10.1465C11.0487 10.3417 11.0488 10.6583 10.8535 10.8535C10.6583 11.0488 10.3417 11.0487 10.1465 10.8535L5.5 6.20703L0.853516 10.8535C0.658266 11.0488 0.341749 11.0487 0.146484 10.8535C-0.0487774 10.6583 -0.0487774 10.3417 0.146484 10.1465L4.79297 5.5L0.146484 0.853516C-0.0487777 0.658254 -0.0487776 0.341747 0.146484 0.146484C0.341747 -0.0487778 0.658253 -0.0487778 0.853516 0.146484L5.5 4.79297L10.1465 0.146484Z" fill="#3B332F"/>
</svg>
